<svg width="338" height="20" viewBox="0 0 338 20" fill="none" xmlns="http://www.w3.org/2000/svg">
<path d="M4 12.3295C3.42708 12.3295 2.90388 12.1899 2.4304 11.9105C1.95691 11.6264 1.57813 11.2476 1.29403 10.7741C1.01468 10.3007 0.875 9.77746 0.875 9.20455C0.875 8.62689 1.01468 8.10369 1.29403 7.63494C1.57813 7.16146 1.95691 6.78504 2.4304 6.50568C2.90388 6.22159 3.42708 6.07955 4 6.07955C4.57765 6.07955 5.10085 6.22159 5.5696 6.50568C6.04309 6.78504 6.41951 7.16146 6.69886 7.63494C6.98295 8.10369 7.125 8.62689 7.125 9.20455C7.125 9.77746 6.98295 10.3007 6.69886 10.7741C6.41951 11.2476 6.04309 11.6264 5.5696 11.9105C5.10085" fill="black"/>
</svg>
